<svg xmlns="http://www.w3.org/2000/svg" width="36" height="36" viewBox="0 0 36 36">
  <path id="instagram" d="M24,18a6,6,0,0,0-6-6,6,6,0,0,0-6,6,6,6,0,0,0,6,6,6,6,0,0,0,6-6Zm3.234,0A9.2,9.2,0,0,1,18,27.234,9.2,9.2,0,0,1,8.766,18,9.2,9.2,0,0,1,18,8.766,9.2,9.2,0,0,1,27.234,18Zm2.531-9.609a2.156,2.156,0,1,1-3.679-1.523,2.156,2.156,0,0,1,3.679,1.523ZM18,3.234l-1.793-.012q-1.629-.012-2.473,0t-2.262.07a18.483,18.483,0,0,0-2.414.234,9.314,9.314,0,0,0-1.675.435A6.13,6.13,0,0,0,3.961,7.383a9.4,9.4,0,0,0-.434,1.676,18.483,18.483,0,0,0-.234,2.414q-.058,1.418-.07,2.262t0,2.473q.012,1.629.012,1.793t-.012,1.793q-.012,1.629,0,2.473t.07,2.262a18.483,18.483,0,0,0,.234,2.414,9.349,9.349,0,0,0,.434,1.674,6.13,6.13,0,0,0,3.422,3.422,9.4,9.4,0,0,0,1.676.434,18.484,18.484,0,0,0,2.414.234q1.418.058,2.262.07t2.473,0L18,32.765l1.793.012q1.629.012,2.473,0t2.262-.07a18.482,18.482,0,0,0,2.414-.234,9.406,9.406,0,0,0,1.676-.434,6.13,6.13,0,0,0,3.422-3.422,9.4,9.4,0,0,0,.434-1.676,18.484,18.484,0,0,0,.234-2.414q.058-1.418.07-2.262t0-2.473q-.012-1.629-.012-1.793t.012-1.793q.012-1.629,0-2.473t-.07-2.262a18.482,18.482,0,0,0-.234-2.414,9.226,9.226,0,0,0-.436-1.674,6.13,6.13,0,0,0-3.422-3.422,9.4,9.4,0,0,0-1.676-.434,18.483,18.483,0,0,0-2.414-.234q-1.418-.058-2.262-.07t-2.473,0L18,3.235ZM36,18q0,5.367-.117,7.43a10.994,10.994,0,0,1-2.906,7.547,10.994,10.994,0,0,1-7.547,2.906Q23.367,36,18,36t-7.43-.117a10.994,10.994,0,0,1-7.547-2.906A10.994,10.994,0,0,1,.117,25.43Q0,23.367,0,18t.117-7.43A10.994,10.994,0,0,1,3.023,3.023,10.994,10.994,0,0,1,10.57.117Q12.633,0,18,0t7.43.117a10.994,10.994,0,0,1,7.547,2.906,10.994,10.994,0,0,1,2.906,7.547Q36,12.633,36,18Z" fill="#ff0054"/>
</svg>
