<svg id="code" xmlns="http://www.w3.org/2000/svg" width="58.993" height="37.003" viewBox="0 0 58.993 37.003">
  <path id="Path_348" data-name="Path 348" d="M40.5,37a2.49,2.49,0,0,1-1.77-.73,2.52,2.52,0,0,1,0-3.54L53,18.5,38.73,4.27A2.5,2.5,0,0,1,42.27.73l16,16a2.52,2.52,0,0,1,0,3.54l-16,16A2.49,2.49,0,0,1,40.5,37Z" transform="translate(-0.004 0.003)" fill="#f08700"/>
  <path id="Path_349" data-name="Path 349" d="M18.5,37a2.49,2.49,0,0,1-1.77-.73l-16-16a2.52,2.52,0,0,1,0-3.54l16-16a2.5,2.5,0,1,1,3.54,3.54L6,18.5,20.27,32.73a2.52,2.52,0,0,1,0,3.54A2.49,2.49,0,0,1,18.5,37Z" transform="translate(-0.004 0.003)" fill="#f08700"/>
</svg>
