<svg id="content" xmlns="http://www.w3.org/2000/svg" width="58.739" height="59" viewBox="0 0 58.739 59">
  <path id="Path_703" data-name="Path 703" d="M30.5,32.17h-19a2.5,2.5,0,1,1,0-5h19a2.5,2.5,0,0,1,0,5Z" fill="#f5bb00"/>
  <path id="Path_704" data-name="Path 704" d="M35.5,19.17h-24a2.5,2.5,0,1,1,0-5h24a2.5,2.5,0,1,1,0,5Z" fill="#f5bb00"/>
  <path id="Path_705" data-name="Path 705" d="M23.5,44.83h-12a2.5,2.5,0,0,1,0-5h12a2.5,2.5,0,1,1,0,5Z" fill="#f5bb00"/>
  <path id="Path_706" data-name="Path 706" d="M29.75,59H10.5A10.51,10.51,0,0,1,0,48.5v-38A10.51,10.51,0,0,1,10.5,0h28A10.51,10.51,0,0,1,49,10.5V25.57a2.5,2.5,0,0,1-5,0V10.5A5.51,5.51,0,0,0,38.5,5h-28A5.51,5.51,0,0,0,5,10.5v38A5.51,5.51,0,0,0,10.5,54H29.75a2.5,2.5,0,0,1,0,5Z" fill="#f5bb00"/>
  <path id="Path_707" data-name="Path 707" d="M43.8,50.86l-5.52,1.42,1.41-5.53L52.17,34.28l4.11,4.11Z" fill="#f5bb00"/>
  <path id="Path_708" data-name="Path 708" d="M38.28,54.78a2.49,2.49,0,0,1-2.42-3.12l1.41-5.53A2.51,2.51,0,0,1,37.92,45L50.4,32.51a2.49,2.49,0,0,1,3.53,0L58,36.62a2.49,2.49,0,0,1,0,3.54L45.57,52.63a2.56,2.56,0,0,1-1.15.66L38.9,54.7a2.7,2.7,0,0,1-.62.08Zm5.52-3.92ZM41.94,48l-.19.77.77-.2L52.74,38.39l-.57-.58Z" fill="#f5bb00"/>
</svg>
