<svg id="download" xmlns="http://www.w3.org/2000/svg" width="59" height="59" viewBox="0 0 59 59">
  <path id="Path_447" data-name="Path 447" d="M29.5,47A2.5,2.5,0,0,1,27,44.5V2.5a2.5,2.5,0,0,1,5,0v42A2.5,2.5,0,0,1,29.5,47Z" fill="#00a1e4"/>
  <path id="Path_448" data-name="Path 448" d="M29.5,47a2.49,2.49,0,0,1-1.77-.73l-14-14a2.5,2.5,0,1,1,3.54-3.54L29.5,41,41.73,28.73a2.5,2.5,0,1,1,3.54,3.54l-14,14A2.49,2.49,0,0,1,29.5,47Z" fill="#00a1e4"/>
  <path id="Path_449" data-name="Path 449" d="M56.5,59H2.5a2.5,2.5,0,0,1,0-5h54a2.5,2.5,0,0,1,0,5Z" fill="#00a1e4"/>
</svg>
