<svg id="next" xmlns="http://www.w3.org/2000/svg" width="59" height="47.263" viewBox="0 0 59 47.263">
  <path id="Path_119" data-name="Path 119" d="M56.5,26.13H2.5a2.5,2.5,0,0,1,0-5h54a2.5,2.5,0,0,1,0,5Z" transform="translate(0 0.003)" fill="#00a1e4"/>
  <path id="Path_120" data-name="Path 120" d="M35.37,47.26a2.49,2.49,0,0,1-1.77-.73,2.52,2.52,0,0,1,0-3.54L53,23.63,33.6,4.27A2.5,2.5,0,0,1,37.14.73L58.27,21.86a2.52,2.52,0,0,1,0,3.54L37.14,46.53a2.49,2.49,0,0,1-1.77.73Z" transform="translate(0 0.003)" fill="#00a1e4"/>
</svg>
