<svg id="palette" xmlns="http://www.w3.org/2000/svg" width="58.927" height="59.015" viewBox="0 0 58.927 59.015">
  <path id="Path_1259" data-name="Path 1259" d="M29.45,59a29.63,29.63,0,0,1-21.9-9.68A29.78,29.78,0,0,1,7.26,10,29.5,29.5,0,0,1,58.19,36a6.32,6.32,0,0,1-1.71,3,6.41,6.41,0,0,1-9,0l-1.66-1.67a6,6,0,0,0-8.49,8.49l1.66,1.66a6.4,6.4,0,0,1,0,9,6.17,6.17,0,0,1-3.06,1.71h0A29.26,29.26,0,0,1,29.45,59Zm5.88-3.14ZM29.43,5h-.79a24.51,24.51,0,1,0,6.14,48.41A1.26,1.26,0,0,0,35.4,53a1.39,1.39,0,0,0,0-2l-1.66-1.66A11,11,0,0,1,49.3,33.84L51,35.5a1.43,1.43,0,0,0,2,0,1.26,1.26,0,0,0,.37-.63A24.5,24.5,0,0,0,29.43,5Z" transform="translate(0.008 0.015)" fill="#ff312e"/>
  <path id="Path_1260" data-name="Path 1260" d="M19.51,27.1a7.45,7.45,0,0,1-5.31-2.2h0a7.5,7.5,0,1,1,5.31,2.2Zm0-10a2.5,2.5,0,0,0-1.77,4.27h0a2.56,2.56,0,0,0,3.53,0,2.5,2.5,0,0,0-1.76-4.27Z" transform="translate(0.008 0.015)" fill="#ff312e"/>
  <path id="Path_1261" data-name="Path 1261" d="M18.23,45.62a7.46,7.46,0,0,1-5.3-2.19h0a7.5,7.5,0,1,1,5.3,2.2Zm0-10a2.5,2.5,0,0,0-1.77,4.27h0a2.57,2.57,0,0,0,3.54,0,2.5,2.5,0,0,0-1.77-4.27Z" transform="translate(0.008 0.015)" fill="#ff312e"/>
  <path id="Path_1262" data-name="Path 1262" d="M38,25.82a7.46,7.46,0,0,1-5.3-2.19h0A7.52,7.52,0,1,1,38,25.82Zm0-10a2.5,2.5,0,0,0-1.77,4.27h0a2.55,2.55,0,0,0,3.54,0A2.5,2.5,0,0,0,38,15.82Z" transform="translate(0.008 0.015)" fill="#ff312e"/>
</svg>
