<svg xmlns="http://www.w3.org/2000/svg" width="876.106" height="221.752" viewBox="0 0 876.106 221.752">
  <g id="Group_36" data-name="Group 36" transform="translate(-138.137 -648.044)">
    <path id="bannerA" d="M386.974,956.777V929.335H359.532l13.721,13.722Z" transform="translate(1236.169 1797.798) rotate(180)" fill="#ff312e" stroke="rgba(0,0,0,0)" stroke-width="1"/>
    <path id="bannerB" d="M438.941,929.335H411.5v27.443l13.721-13.721Z" transform="translate(1260.739 1797.798) rotate(180)" fill="#23ce6b" stroke="rgba(0,0,0,0)" stroke-width="1"/>
    <path id="bannerO" d="M466.383,1088.153v-54.884H411.5l27.442,27.442Z" transform="translate(1261.233 1846.847) rotate(180)" fill="#ff312e" stroke="rgba(0,0,0,0)" stroke-width="1"/>
    <path id="bannerP" d="M362.45,1033.269H307.565v54.884l27.442-27.442Z" transform="translate(1211.994 1846.847) rotate(180)" fill="#ff312e" stroke="rgba(0,0,0,0)" stroke-width="1"/>
    <path id="bannerQ" d="M411.5,1085.236v27.442h27.442l-13.721-13.721Z" transform="translate(1261.17 1871.371) rotate(180)" fill="#f5bb00" stroke="rgba(0,0,0,0)" stroke-width="1"/>
    <path id="bannerR" d="M359.532,1112.678h27.443v-27.442l-13.721,13.721Z" transform="translate(1236.557 1871.371) rotate(180)" fill="#1f01b9" stroke="rgba(0,0,0,0)" stroke-width="1"/>
    <path id="bannerS" d="M411.5,984.22h54.884V929.335l-27.442,27.443Z" transform="translate(1261.233 1797.798) rotate(180)" fill="#1f01b9" stroke="rgba(0,0,0,0)" stroke-width="1"/>
    <path id="bannerT" d="M307.565,929.335V984.22H362.45l-27.442-27.443Z" transform="translate(1211.994 1797.798) rotate(180)" fill="#f5bb00" stroke="rgba(0,0,0,0)" stroke-width="1"/>
    <path id="bannerY" d="M0,54.885A54.884,54.884,0,0,0,54.885,109.77V82.327a27.442,27.442,0,1,1,0-54.885V0A54.877,54.877,0,0,0,0,54.885" transform="translate(794.868 649.265)" fill="#1f01b9" stroke="rgba(0,0,0,0)" stroke-width="1"/>
    <path id="bannerZ" d="M2127.652,1210.538a54.884,54.884,0,0,0-54.885-54.885,54.884,54.884,0,0,0,54.885,54.885" transform="translate(2977.158 1914.656) rotate(180)" fill="#f5bb00" stroke="rgba(0,0,0,0)" stroke-width="1"/>
    <path id="bannerAA" d="M2072.767,1106.6a54.891,54.891,0,0,0,54.885-54.885h-.011a54.872,54.872,0,0,0-54.874,54.874Z" transform="translate(2977.158 1755.993) rotate(180)" fill="#ff312e" stroke="rgba(0,0,0,0)" stroke-width="1"/>
    <path id="bannerAB" d="M785.554,1423.608l-9.111,9.111,9.111,9.111-9.111,9.111-18.222-18.222,18.222-18.222Z" transform="translate(1753.498 2136.924) rotate(180)" fill="#23ce6b" stroke="rgba(0,0,0,0)" stroke-width="1"/>
    <path id="bannerAC" d="M801.838,1466.256l9.111,9.111,9.111-9.111,9.111,9.111-18.222,18.222-18.222-18.222Z" transform="translate(1769.852 2161.413) rotate(180)" fill="#f5bb00" stroke="rgba(0,0,0,0)" stroke-width="1"/>
    <path id="bannerAD" d="M820.06,1407.345l-9.111-9.111-9.111,9.1-9.111-9.111,18.222-18.211,18.222,18.211Z" transform="translate(1769.852 2120.598) rotate(180)" fill="#ff312e" stroke="rgba(0,0,0,0)" stroke-width="1"/>
    <path id="bannerAE" d="M844.486,1441.83l9.111-9.111-9.111-9.111,9.111-9.111,18.222,18.222L853.6,1450.94Z" transform="translate(1794.355 2136.924) rotate(180)" fill="#1f01b9" stroke="rgba(0,0,0,0)" stroke-width="1"/>
    <path id="bannerAF" d="M827.233,1345.069h54.884v54.885Z" transform="translate(1786.222 2104.075) rotate(180)" fill="#23ce6b" stroke="rgba(0,0,0,0)" stroke-width="1"/>
    <path id="bannerAG" d="M723.3,1399.954v-54.885h54.885Z" transform="translate(1736.983 2104.075) rotate(180)" fill="#1f01b9" stroke="rgba(0,0,0,0)" stroke-width="1"/>
    <path id="bannerAH" d="M778.184,1503.887H723.3V1449Z" transform="translate(1736.983 2153.267) rotate(180)" fill="#ff312e" stroke="rgba(0,0,0,0)" stroke-width="1"/>
    <path id="bannerEA" d="M2333.246,718.314h0l27.1,27.442h0V635.987l-27.1,27.442Z" transform="translate(3045.942 1395.018) rotate(180)" fill="#f5bb00" stroke="rgba(0,0,0,0)" stroke-width="1"/>
    <path id="bannerEB" d="M2203.8,718.314V663.429l-27.1-27.442V745.756Z" transform="translate(2971.798 1395.018) rotate(180)" fill="#23ce6b" stroke="rgba(0,0,0,0)" stroke-width="1"/>
    <path id="bannerEC" d="M2283.588,687.954h-55.566l27.783,27.442Z" transform="translate(2996.285 1419.568) rotate(180)" fill="#23ce6b" stroke="rgba(0,0,0,0)" stroke-width="1"/>
    <path id="bannerED" d="M2283.588,635.987h-55.566l27.783,27.442Z" transform="translate(2996.285 1394.975) rotate(180)" fill="#ff312e" stroke="rgba(0,0,0,0)" stroke-width="1"/>
    <path id="bannerEE" d="M2255.805,739.92l-27.783,27.442h55.566Z" transform="translate(2996.285 1444.161) rotate(180)" fill="#1f01b9" stroke="rgba(0,0,0,0)" stroke-width="1"/>
    <path id="bannerEF" d="M2255.805,791.887l-27.783,27.442h55.566Z" transform="translate(2996.285 1468.754) rotate(180)" fill="#ff312e" stroke="rgba(0,0,0,0)" stroke-width="1"/>
    <path id="bannerAI" d="M1968.834,690.872V635.987h54.885a54.876,54.876,0,0,0-54.885,54.885" transform="translate(2982.519 1504.449) rotate(180)" fill="#23ce6b" stroke="rgba(0,0,0,0)" stroke-width="1"/>
    <path id="bannerAJ" d="M2023.719,635.987v54.885h-54.885a54.883,54.883,0,0,0,54.885-54.885" transform="translate(2982.519 1504.449) rotate(180)" fill="#1f01b9" stroke="rgba(0,0,0,0)" stroke-width="1"/>
    <path id="bannerAK" d="M2127.652,690.872h-54.885V635.987a54.876,54.876,0,0,0,54.885,54.885" transform="translate(3031.757 1504.449) rotate(180)" fill="#ff312e" stroke="rgba(0,0,0,0)" stroke-width="1"/>
    <path id="bannerAL" d="M2072.767,635.987h54.885v54.885a54.883,54.883,0,0,0-54.885-54.885" transform="translate(3031.757 1504.449) rotate(180)" fill="#1f01b9" stroke="rgba(0,0,0,0)" stroke-width="1"/>
    <path id="bannerER" d="M0,54.885A54.884,54.884,0,0,0,54.885,109.77V82.327a27.442,27.442,0,1,1,0-54.885V0A54.877,54.877,0,0,0,0,54.885" transform="translate(1013.743 758.689) rotate(90)" fill="#f5bb00" stroke="rgba(0,0,0,0)" stroke-width="1"/>
    <path id="bannerC" d="M2384.567,791.513v27.64H2412.2A61.6,61.6,0,0,1,2384.567,791.513Z" transform="translate(3179.932 1577.846) rotate(180)" fill="#f5bb00" stroke="rgba(0,0,0,0)" stroke-width="1"/>
    <path id="bannerD" d="M2397.776,739.92H2389a52.6,52.6,0,0,0,52.547,52.547v-8.781A43.814,43.814,0,0,1,2397.776,739.92Z" transform="translate(3182.021 1553.498) rotate(180)" fill="#f5bb00" stroke="rgba(0,0,0,0)" stroke-width="1"/>
    <path id="bannerE" d="M2457.188,774.958v-8.781a26.286,26.286,0,0,1-26.257-26.257h-8.782A35.079,35.079,0,0,0,2457.188,774.958Z" transform="translate(3197.667 1553.498) rotate(180)" fill="#f5bb00" stroke="rgba(0,0,0,0)" stroke-width="1"/>
    <path id="bannerF" d="M2464.106,739.92h-8.781a17.54,17.54,0,0,0,17.52,17.519v-8.781A8.747,8.747,0,0,1,2464.106,739.92Z" transform="translate(3213.324 1553.498) rotate(180)" fill="#f5bb00" stroke="rgba(0,0,0,0)" stroke-width="1"/>
    <path id="bannerG" d="M2412.207,635.987h-27.64v27.629A61.6,61.6,0,0,1,2412.207,635.987Z" transform="translate(3179.932 1504.449) rotate(180)" fill="#ff312e" stroke="rgba(0,0,0,0)" stroke-width="1"/>
    <path id="bannerH" d="M2441.542,649.175v-8.781A52.609,52.609,0,0,0,2389,692.951h8.781A43.817,43.817,0,0,1,2441.542,649.175Z" transform="translate(3182.021 1506.529) rotate(180)" fill="#ff312e" stroke="rgba(0,0,0,0)" stroke-width="1"/>
    <path id="bannerI" d="M2457.188,682.33v-8.781a35.081,35.081,0,0,0-35.039,35.049h8.782A26.3,26.3,0,0,1,2457.188,682.33Z" transform="translate(3197.667 1522.176) rotate(180)" fill="#ff312e" stroke="rgba(0,0,0,0)" stroke-width="1"/>
    <path id="bannerJ" d="M2472.844,715.505v-8.781a17.542,17.542,0,0,0-17.52,17.53h8.781A8.749,8.749,0,0,1,2472.844,715.505Z" transform="translate(3213.324 1537.832) rotate(180)" fill="#ff312e" stroke="rgba(0,0,0,0)" stroke-width="1"/>
    <path id="bannerK" d="M2540.093,819.163h27.64V791.534A61.611,61.611,0,0,1,2540.093,819.163Z" transform="translate(3253.328 1577.856) rotate(180)" fill="#23ce6b" stroke="rgba(0,0,0,0)" stroke-width="1"/>
    <path id="bannerL" d="M2488.5,783.685v8.781a52.61,52.61,0,0,0,52.557-52.547h-8.782A43.823,43.823,0,0,1,2488.5,783.685Z" transform="translate(3228.98 1553.498) rotate(180)" fill="#23ce6b" stroke="rgba(0,0,0,0)" stroke-width="1"/>
    <path id="bannerM" d="M2488.5,766.177v8.781a35.079,35.079,0,0,0,35.038-35.038h-8.781A26.286,26.286,0,0,1,2488.5,766.177Z" transform="translate(3228.98 1553.498) rotate(180)" fill="#23ce6b" stroke="rgba(0,0,0,0)" stroke-width="1"/>
    <path id="bannerN" d="M2488.5,748.658v8.781a17.542,17.542,0,0,0,17.53-17.519h-8.782A8.748,8.748,0,0,1,2488.5,748.658Z" transform="translate(3228.98 1553.498) rotate(180)" fill="#23ce6b" stroke="rgba(0,0,0,0)" stroke-width="1"/>
    <path id="bannerFH" d="M27.64,0H0V27.629A61.611,61.611,0,0,1,27.64,0Z" transform="translate(686.407 867.299) rotate(-90)" fill="#1f01b9" stroke="rgba(0,0,0,0)" stroke-width="1"/>
    <path id="bannerFI" d="M52.557,8.781V0A52.61,52.61,0,0,0,0,52.547H8.782A43.823,43.823,0,0,1,52.557,8.781Z" transform="translate(688.745 864.972) rotate(-90)" fill="#1f01b9" stroke="rgba(0,0,0,0)" stroke-width="1"/>
    <path id="bannerFJ" d="M35.038,8.781V0A35.079,35.079,0,0,0,0,35.038H8.781A26.286,26.286,0,0,1,35.038,8.781Z" transform="translate(706.253 847.452) rotate(-90)" fill="#1f01b9" stroke="rgba(0,0,0,0)" stroke-width="1"/>
    <path id="bannerFK" d="M17.53,8.781V0A17.542,17.542,0,0,0,0,17.519H8.782A8.748,8.748,0,0,1,17.53,8.781Z" transform="translate(723.772 829.944) rotate(-90)" fill="#1f01b9" stroke="rgba(0,0,0,0)" stroke-width="1"/>
    <path id="bannerAM" d="M36.055,0,0,36.055V26.677L26.677,0Z" transform="translate(521.809 758.808)" fill="#1f01b9" stroke="rgba(0,0,0,0)" stroke-width="1"/>
    <path id="bannerAN" d="M9.378,36.055H0L36.055,0V9.378Z" transform="translate(540.639 777.637)" fill="#1f01b9" stroke="rgba(0,0,0,0)" stroke-width="1"/>
    <path id="bannerAO" d="M54.885,4.762,4.762,54.885H0V50.122L50.122,0h4.763Z" transform="translate(521.809 758.808)" fill="#1f01b9" stroke="rgba(0,0,0,0)" stroke-width="1"/>
    <path id="bannerAP" d="M36.055,26.677v9.378L0,0H9.378Z" transform="translate(485.944 758.808)" fill="#23ce6b" stroke="rgba(0,0,0,0)" stroke-width="1"/>
    <path id="bannerAQ" d="M26.677,36.055,0,9.378V0L36.055,36.055Z" transform="translate(467.114 777.637)" fill="#23ce6b" stroke="rgba(0,0,0,0)" stroke-width="1"/>
    <path id="bannerAR" d="M4.763,0,54.885,50.122v4.762H50.122L0,4.762V0Z" transform="translate(467.114 758.808)" fill="#23ce6b" stroke="rgba(0,0,0,0)" stroke-width="1"/>
    <path id="bannerAS" d="M36.055,9.378,9.378,36.055H0L36.055,0Z" transform="translate(485.944 722.914)" fill="#ff312e" stroke="rgba(0,0,0,0)" stroke-width="1"/>
    <path id="bannerAT" d="M0,50.122,50.122,0h4.762V4.762L4.763,54.885H0Z" transform="translate(467.114 704.084)" fill="#ff312e" stroke="rgba(0,0,0,0)" stroke-width="1"/>
    <path id="bannerAU" d="M26.677,0h9.378L0,36.055V26.677Z" transform="translate(467.114 704.084)" fill="#ff312e" stroke="rgba(0,0,0,0)" stroke-width="1"/>
    <path id="bannerAV" d="M0,109.769H0A54.883,54.883,0,0,0,54.884,54.885,54.891,54.891,0,0,0,0,0Z" transform="translate(412.552 649.217)" fill="#f5bb00" stroke="rgba(0,0,0,0)" stroke-width="1"/>
    <path id="bannerAW" d="M54.885,0H0V54.885A54.891,54.891,0,0,1,54.885,0" transform="translate(357.857 649.408)" fill="#1f01b9" stroke="rgba(0,0,0,0)" stroke-width="1"/>
    <path id="bannerAX" d="M0,0V54.885H54.885A54.884,54.884,0,0,1,0,0" transform="translate(357.901 704.086)" fill="#23ce6b" stroke="rgba(0,0,0,0)" stroke-width="1"/>
    <path id="bannerAY" d="M54.884,54.885V0H0A54.891,54.891,0,0,1,54.884,54.885" transform="translate(412.552 649.408)" fill="#23ce6b" stroke="rgba(0,0,0,0)" stroke-width="1"/>
    <path id="bannerBN" d="M54.885,0V54.885H0A54.883,54.883,0,0,0,54.885,0" transform="translate(576.178 704.085)" fill="#ff312e" stroke="rgba(0,0,0,0)" stroke-width="1"/>
    <path id="bannerBI" d="M54.885,0V54.885H0A54.876,54.876,0,0,0,54.885,0" transform="translate(631.063 649.407)" fill="#ff312e" stroke="rgba(0,0,0,0)" stroke-width="1"/>
    <path id="bannerBJ" d="M0,54.885V0H54.885A54.883,54.883,0,0,0,0,54.885" transform="translate(631.063 649.407)" fill="#f5bb00" stroke="rgba(0,0,0,0)" stroke-width="1"/>
    <path id="bannerBK" d="M0,0H54.885V54.885A54.876,54.876,0,0,0,0,0" transform="translate(576.178 649.407)" fill="#1f01b9" stroke="rgba(0,0,0,0)" stroke-width="1"/>
    <path id="bannerBL" d="M54.885,54.885H0V0A54.883,54.883,0,0,0,54.885,54.885" transform="translate(576.178 649.407)" fill="#23ce6b" stroke="rgba(0,0,0,0)" stroke-width="1"/>
    <path id="bannerBM" d="M0,54.885V0H54.885A54.876,54.876,0,0,0,0,54.885" transform="translate(576.178 704.085)" fill="#f5bb00" stroke="rgba(0,0,0,0)" stroke-width="1"/>
    <path id="bannerBO" d="M54.885,54.885H0V0A54.876,54.876,0,0,0,54.885,54.885" transform="translate(631.062 704.085)" fill="#f5bb00" stroke="rgba(0,0,0,0)" stroke-width="1"/>
    <path id="bannerBP" d="M0,0H54.885V54.885A54.883,54.883,0,0,0,0,0" transform="translate(631.062 704.085)" fill="#1f01b9" stroke="rgba(0,0,0,0)" stroke-width="1"/>
    <path id="bannerCM" d="M0,0V27.442H27.442L13.721,13.721Z" transform="translate(412.592 786.251)" fill="#ff312e" stroke="rgba(0,0,0,0)" stroke-width="1"/>
    <path id="bannerCN" d="M0,27.442H27.442V0L13.721,13.721Z" transform="translate(385.238 786.251)" fill="#23ce6b" stroke="rgba(0,0,0,0)" stroke-width="1"/>
    <path id="bannerCO" d="M54.884,0H0V54.885L27.442,27.443Z" transform="translate(357.859 758.809)" fill="#f5bb00" stroke="rgba(0,0,0,0)" stroke-width="1"/>
    <path id="bannerCP" d="M54.885,54.885V0H0L27.442,27.443Z" transform="translate(412.554 758.809)" fill="#1f01b9" stroke="rgba(0,0,0,0)" stroke-width="1"/>
    <path id="bannerCQ" d="M0,27.443V0H27.443Z" transform="translate(303.484 649.488) rotate(90)" fill="#f5bb00" stroke="rgba(0,0,0,0)" stroke-width="1"/>
    <path id="bannerCR" d="M27.443,27.443H0V0Z" transform="translate(330.927 649.488) rotate(90)" fill="#ff312e" stroke="rgba(0,0,0,0)" stroke-width="1"/>
    <path id="bannerCS" d="M0,0H54.885V54.885Z" transform="translate(358.369 649.436) rotate(90)" fill="#23ce6b" stroke="rgba(0,0,0,0)" stroke-width="1"/>
    <path id="bannerCT" d="M54.885,0V54.884H0Z" transform="translate(303.484 649.436) rotate(90)" fill="#1f01b9" stroke="rgba(0,0,0,0)" stroke-width="1"/>
    <path id="bannerDK" d="M54.885,0,0,54.885V0Z" transform="translate(467.114 649.43)" fill="#ff312e" stroke="rgba(0,0,0,0)" stroke-width="1"/>
    <path id="bannerDL" d="M0,54.885,54.885,0V54.885Z" transform="translate(467.114 649.43)" fill="#1f01b9" stroke="rgba(0,0,0,0)" stroke-width="1"/>
    <path id="bannerDM" d="M0,54.885,54.885,0V54.885Z" transform="translate(521.809 649.43)" fill="#f5bb00" stroke="rgba(0,0,0,0)" stroke-width="1"/>
    <path id="bannerEG" d="M27.64,0H0V27.629A61.6,61.6,0,0,1,27.64,0Z" transform="translate(358.369 704.09) rotate(90)" fill="#f5bb00" stroke="rgba(0,0,0,0)" stroke-width="1"/>
    <path id="bannerEH" d="M52.547,8.781V0A52.609,52.609,0,0,0,0,52.557H8.781A43.816,43.816,0,0,1,52.547,8.781Z" transform="translate(356.042 706.428) rotate(90)" fill="#f5bb00" stroke="rgba(0,0,0,0)" stroke-width="1"/>
    <path id="bannerEI" d="M35.039,8.781V0A35.082,35.082,0,0,0,0,35.049H8.782A26.3,26.3,0,0,1,35.039,8.781Z" transform="translate(338.534 723.936) rotate(90)" fill="#f5bb00" stroke="rgba(0,0,0,0)" stroke-width="1"/>
    <path id="bannerEJ" d="M17.52,8.781V0A17.542,17.542,0,0,0,0,17.53H8.781A8.749,8.749,0,0,1,17.52,8.781Z" transform="translate(321.015 741.455) rotate(90)" fill="#f5bb00" stroke="rgba(0,0,0,0)" stroke-width="1"/>
    <path id="bannerEK" d="M0,0H54.884V54.885A54.89,54.89,0,0,1,0,0" transform="translate(248.596 758.819)" fill="#23ce6b" stroke="rgba(0,0,0,0)" stroke-width="1"/>
    <path id="bannerEO" d="M54.885,54.885,0,0H54.885Z" transform="translate(631.063 758.819)" fill="#23ce6b"/>
    <path id="bannerEP" d="M0,0,54.885,54.885H0Z" transform="translate(631.063 758.819)" fill="#1f01b9"/>
    <path id="bannerEQ" d="M0,0,54.885,54.885H0Z" transform="translate(576.178 758.819)" fill="#f5bb00"/>
    <path id="bannerES" d="M27.64,0H0V27.629A61.6,61.6,0,0,1,27.64,0Z" transform="translate(631.71 813.704)" fill="#ff312e" stroke="rgba(0,0,0,0)" stroke-width="1"/>
    <path id="bannerET" d="M52.547,8.781V0A52.609,52.609,0,0,0,0,52.557H8.781A43.817,43.817,0,0,1,52.547,8.781Z" transform="translate(634.048 816.031)" fill="#ff312e" stroke="rgba(0,0,0,0)" stroke-width="1"/>
    <path id="bannerEU" d="M35.039,8.781V0A35.081,35.081,0,0,0,0,35.049H8.782A26.3,26.3,0,0,1,35.039,8.781Z" transform="translate(651.556 833.539)" fill="#ff312e" stroke="rgba(0,0,0,0)" stroke-width="1"/>
    <path id="bannerEV" d="M17.52,8.781V0A17.542,17.542,0,0,0,0,17.53H8.781A8.749,8.749,0,0,1,17.52,8.781Z" transform="translate(669.076 851.058)" fill="#ff312e" stroke="rgba(0,0,0,0)" stroke-width="1"/>
    <path id="bannerEW" d="M54.884,54.885H0V0A54.89,54.89,0,0,1,54.884,54.885" transform="translate(303.416 868.588) rotate(-90)" fill="#ff312e" stroke="rgba(0,0,0,0)" stroke-width="1"/>
    <path id="bannerEX" d="M0,54.885H0V0H54.884A54.883,54.883,0,0,1,0,54.885" transform="translate(248.595 868.588) rotate(-90)" fill="#f5bb00" stroke="rgba(0,0,0,0)" stroke-width="1"/>
    <path id="bannerEY" d="M0,54.885,54.885,0V54.885Z" transform="translate(412.758 813.704)" fill="#ff312e" stroke="rgba(0,0,0,0)" stroke-width="1"/>
    <path id="bannerEZ" d="M54.885,0,0,54.885V0Z" transform="translate(412.758 813.704)" fill="#23ce6b" stroke="rgba(0,0,0,0)" stroke-width="1"/>
    <path id="bannerFA" d="M54.885,0,0,54.885V0Z" transform="translate(358.029 813.704)" fill="#1f01b9" stroke="rgba(0,0,0,0)" stroke-width="1"/>
    <path id="bannerFB" d="M0,54.885V0H54.885A54.876,54.876,0,0,0,0,54.885" transform="translate(522.334 813.704) rotate(90)" fill="#ff312e" stroke="rgba(0,0,0,0)" stroke-width="1"/>
    <path id="bannerFC" d="M54.885,0V54.885H0A54.883,54.883,0,0,0,54.885,0" transform="translate(522.334 813.704) rotate(90)" fill="#23ce6b" stroke="rgba(0,0,0,0)" stroke-width="1"/>
    <path id="bannerFD" d="M54.885,54.885H0V0A54.876,54.876,0,0,0,54.885,54.885" transform="translate(522.115 868.589) rotate(-90)" fill="#f5bb00" stroke="rgba(0,0,0,0)" stroke-width="1"/>
    <path id="bannerFE" d="M0,0H54.885V54.885A54.883,54.883,0,0,0,0,0" transform="translate(522.115 868.589) rotate(-90)" fill="#1f01b9" stroke="rgba(0,0,0,0)" stroke-width="1"/>
    <path id="bannerFF" d="M54.885,54.885,0,0H54.885Z" transform="translate(576.825 868.589) rotate(-90)" fill="#ff312e"/>
    <path id="bannerFG" d="M0,0,54.885,54.885H0Z" transform="translate(576.825 868.589) rotate(-90)" fill="#1f01b9"/>
    <path id="bannerGK" d="M0,0H54.452V54.453A54.455,54.455,0,0,0,0,0" transform="translate(193.803 649.217)" fill="#f5bb00" stroke="rgba(0,0,0,0)" stroke-width="1"/>
    <path id="bannerGL" d="M54.452,54.453h0V0H0A54.453,54.453,0,0,0,54.452,54.453Z" transform="translate(193.803 703.67)" fill="#ff312e" stroke="rgba(0,0,0,0)" stroke-width="1"/>
    <path id="bannerGM" d="M54.453,0H0V54.453H0A54.453,54.453,0,0,0,54.453,0Z" transform="translate(139.35 703.67)" fill="#1f01b9" stroke="rgba(0,0,0,0)" stroke-width="1"/>
    <path id="bannerGN" d="M54.453,0h0V54.453H0A54.453,54.453,0,0,1,54.453,0Z" transform="translate(139.35 649.217)" fill="#23ce6b" stroke="rgba(0,0,0,0)" stroke-width="1"/>
    <path id="bannerGR" d="M26.846,36.284h9.437L0,0V9.437Z" transform="translate(138.137 777.072)" fill="#ff312e"/>
    <path id="bannerGS" d="M36.284,26.846,9.437,0H0L36.284,36.284Z" transform="translate(157.086 758.123)" fill="#ff312e"/>
    <path id="bannerGT" d="M0,4.793l50.44,50.44h4.793V50.44L4.792,0H0Z" transform="translate(138.137 758.123)" fill="#ff312e"/>
    <path id="bannerGU" d="M0,36.284,36.284,0H26.846L0,26.846Z" transform="translate(193.37 758.123)" fill="#1f01b9"/>
    <path id="bannerGV" d="M36.284,9.437V0L0,36.284H9.437Z" transform="translate(212.319 777.072)" fill="#1f01b9"/>
    <path id="bannerGW" d="M4.792,55.233l50.44-50.44V0H50.44L0,50.44v4.793Z" transform="translate(193.37 758.123)" fill="#1f01b9"/>
    <path id="bannerGX" d="M9.437,36.284,36.284,9.437V0L0,36.284Z" transform="translate(157.086 832.305)" fill="#f5bb00"/>
    <path id="bannerGY" d="M50.44,0,0,50.44v4.793H4.792l50.44-50.44V0Z" transform="translate(138.137 813.356)" fill="#f5bb00"/>
    <path id="bannerGZ" d="M0,26.846v9.437L36.284,0H26.846Z" transform="translate(138.137 813.356)" fill="#f5bb00"/>
    <path id="bannerHA" d="M9.437,0H0L36.284,36.284V26.846Z" transform="translate(212.319 813.356)" fill="#23ce6b"/>
    <path id="bannerHB" d="M4.645,0H0V4.793l50.44,50.44h4.793V50.44L4.792,0Z" transform="translate(193.37 813.356)" fill="#23ce6b"/>
    <path id="bannerHC" d="M0,9.437,26.846,36.284h9.437L0,0Z" transform="translate(193.37 832.305)" fill="#23ce6b"/>
  </g>
</svg>
