<svg id="previous" xmlns="http://www.w3.org/2000/svg" width="59" height="47.273" viewBox="0 0 59 47.273">
  <path id="Path_117" data-name="Path 117" d="M56.5,26.13H2.5a2.5,2.5,0,0,1,0-5h54a2.5,2.5,0,0,1,0,5Z" transform="translate(0 0.003)" fill="#00a1e4"/>
  <path id="Path_118" data-name="Path 118" d="M23.63,47.26a2.49,2.49,0,0,1-1.77-.73L.73,25.4a2.51,2.51,0,0,1,0-3.54L21.86.73A2.5,2.5,0,0,1,25.4,4.27L6,23.63,25.4,43a2.5,2.5,0,0,1-1.77,4.27Z" transform="translate(0 0.003)" fill="#00a1e4"/>
</svg>
