<svg id="seo" xmlns="http://www.w3.org/2000/svg" width="59" height="59" viewBox="0 0 59 59">
  <path id="Path_607" data-name="Path 607" d="M48.5,59h-38A10.51,10.51,0,0,1,0,48.5v-38A10.51,10.51,0,0,1,10.5,0h38A10.51,10.51,0,0,1,59,10.5v38A10.51,10.51,0,0,1,48.5,59ZM10.5,5A5.51,5.51,0,0,0,5,10.5v38A5.51,5.51,0,0,0,10.5,54h38A5.51,5.51,0,0,0,54,48.5v-38A5.51,5.51,0,0,0,48.5,5Z" fill="#23ce6b"/>
  <path id="Path_608" data-name="Path 608" d="M56.5,21H2.5a2.5,2.5,0,1,1,0-5h54a2.5,2.5,0,0,1,0,5Z" fill="#23ce6b"/>
  <path id="Path_609" data-name="Path 609" d="M27.05,46.28A11.06,11.06,0,1,1,38.11,35.22,11.06,11.06,0,0,1,27.05,46.28Zm0-17.11a6.06,6.06,0,1,0,6.06,6,6.06,6.06,0,0,0-6.06-6Z" fill="#23ce6b"/>
  <path id="Path_610" data-name="Path 610" d="M40.5,51.17a2.5,2.5,0,0,1-1.77-.74L31.34,43a2.5,2.5,0,1,1,3.53-3.54l7.4,7.4a2.51,2.51,0,0,1-1.77,4.27Z" fill="#23ce6b"/>
  <path id="Path_611" data-name="Path 611" d="M25,13H23a2.5,2.5,0,1,1,0-5h2a2.5,2.5,0,0,1,0,5Z" fill="#23ce6b"/>
  <path id="Path_612" data-name="Path 612" d="M14,13H12a2.5,2.5,0,1,1,0-5h2a2.5,2.5,0,0,1,0,5Z" fill="#23ce6b"/>
</svg>
