<svg id="social" xmlns="http://www.w3.org/2000/svg" width="59" height="51.79" viewBox="0 0 59 51.79">
  <path id="Path_761" data-name="Path 761" d="M46.54,42.14a2.54,2.54,0,0,1-1.25-.33L32.83,34.67a2.5,2.5,0,1,1,2.48-4.34l8.73,5V32.41a2.5,2.5,0,0,1,5,0v7.23a2.49,2.49,0,0,1-2.5,2.5Z" fill="#ff0054"/>
  <path id="Path_762" data-name="Path 762" d="M34.07,35H27.36A14,14,0,0,1,13.43,21.07V13.93A14,14,0,0,1,27.36,0H45.07A14,14,0,0,1,59,13.93v7.14A14,14,0,0,1,46.85,34.89a2.52,2.52,0,1,1-.63-5A9,9,0,0,0,54,21.07V13.93A9,9,0,0,0,45.07,5H27.36a8.94,8.94,0,0,0-8.93,8.93v7.14A8.94,8.94,0,0,0,27.36,30h6.71a2.5,2.5,0,0,1,0,5Z" fill="#ff0054"/>
  <path id="Path_763" data-name="Path 763" d="M12.46,51.79a2.55,2.55,0,0,1-1.25-.34A2.51,2.51,0,0,1,10,49.29V42.05a2.5,2.5,0,0,1,5,0V45l8.73-5a2.5,2.5,0,1,1,2.48,4.34l-12.5,7.12a2.54,2.54,0,0,1-1.25.33Z" fill="#ff0054"/>
  <path id="Path_764" data-name="Path 764" d="M29.64,44.64H24.93a2.5,2.5,0,1,1,0-5h4.71a8.87,8.87,0,0,0,8-4.94,2.5,2.5,0,1,1,4.47,2.24A13.85,13.85,0,0,1,29.64,44.64Z" fill="#ff0054"/>
  <path id="Path_765" data-name="Path 765" d="M12.47,44.55h-.32A14,14,0,0,1,0,30.71V23.57A14,14,0,0,1,13.93,9.64h2.14a2.5,2.5,0,0,1,0,5H13.93A8.94,8.94,0,0,0,5,23.57v7.14a8.93,8.93,0,0,0,7.78,8.86,2.5,2.5,0,1,1-.31,5Z" fill="#ff0054"/>
  <path id="Path_766" data-name="Path 766" d="M44.21,24.75h-16a2.5,2.5,0,1,1,0-5h16a2.5,2.5,0,0,1,0,5Z" fill="#ff0054"/>
  <path id="Path_767" data-name="Path 767" d="M44.21,15.25h-16a2.5,2.5,0,1,1,0-5h16a2.5,2.5,0,0,1,0,5Z" fill="#ff0054"/>
</svg>
