<svg id="trending_two" data-name="trending two" xmlns="http://www.w3.org/2000/svg" width="59.005" height="34.002" viewBox="0 0 59.005 34.002">
  <path id="Path_1732" data-name="Path 1732" d="M56.5,20.63a2.49,2.49,0,0,1-2.5-2.5V5H40.87a2.5,2.5,0,0,1,0-5H56.5A2.5,2.5,0,0,1,59,2.5V18.13a2.49,2.49,0,0,1-2.5,2.5Z" transform="translate(0.002 0.002)" fill="#00a1e4"/>
  <path id="Path_1733" data-name="Path 1733" d="M31.37,34h-.25a2.5,2.5,0,0,1-1.93-1.26L19.31,15.18,4.39,32.33A2.5,2.5,0,1,1,.61,29.05L17.87,9.23a2.49,2.49,0,0,1,4.06.41l9.88,17.53L54.61.86a2.5,2.5,0,0,1,3.78,3.28l-25.13,29A2.52,2.52,0,0,1,31.37,34Z" transform="translate(0.002 0.002)" fill="#00a1e4"/>
</svg>
