<svg id="trending" xmlns="http://www.w3.org/2000/svg" width="59.002" height="59" viewBox="0 0 59.002 59">
  <path id="Path_1359" data-name="Path 1359" d="M56.5,59H2.5A2.5,2.5,0,0,1,0,56.5V2.5a2.5,2.5,0,0,1,5,0V54H56.5a2.5,2.5,0,0,1,0,5Z" fill="#c200fb"/>
  <path id="Path_1360" data-name="Path 1360" d="M56.5,27.39a2.5,2.5,0,0,1-2.5-2.5V15.23H44.34a2.5,2.5,0,0,1,0-5H56.5a2.5,2.5,0,0,1,2.5,2.5V24.89a2.5,2.5,0,0,1-2.5,2.5Z" fill="#c200fb"/>
  <path id="Path_1361" data-name="Path 1361" d="M37,37.77h-.25a2.5,2.5,0,0,1-1.93-1.26l-7.3-12.95L16.39,36.3A2.51,2.51,0,0,1,12.61,33L26,17.59a2.53,2.53,0,0,1,2.14-.84A2.5,2.5,0,0,1,30.1,18l7.29,13L54.61,11.09a2.5,2.5,0,0,1,3.78,3.28L38.84,36.91a2.47,2.47,0,0,1-1.84.86Z" fill="#c200fb"/>
</svg>
