<svg id="facebook" xmlns="http://www.w3.org/2000/svg" width="59" height="59" viewBox="0 0 59 59">
  <path id="Path_567" data-name="Path 567" d="M45.6,21.17h-4c-3.13,0-3.73,1.49-3.73,3.67v4.8h7.45l-1,7.54H37.88V56.5H30.1V37.18H23.6V29.64h6.5V24.09c0-6.44,3.94-9.95,9.69-9.95a54.511,54.511,0,0,1,5.81.29Z" fill="#34f6f2"/>
  <path id="Path_568" data-name="Path 568" d="M48.5,59h-38A10.51,10.51,0,0,1,0,48.5v-38A10.51,10.51,0,0,1,10.5,0h38A10.51,10.51,0,0,1,59,10.5v38A10.51,10.51,0,0,1,48.5,59ZM10.5,5A5.51,5.51,0,0,0,5,10.5v38A5.51,5.51,0,0,0,10.5,54h38A5.51,5.51,0,0,0,54,48.5v-38A5.51,5.51,0,0,0,48.5,5Z" fill="#34f6f2"/>
</svg>
