<svg xmlns="http://www.w3.org/2000/svg" width="35.461" height="28.8" viewBox="0 0 35.461 28.8">
  <path id="twitter" d="M35.73,3.42a15.209,15.209,0,0,1-3.645,3.757q.022.315.022.945a20.648,20.648,0,0,1-.855,5.839,21.1,21.1,0,0,1-2.6,5.591A21.974,21.974,0,0,1,24.5,24.289,18.473,18.473,0,0,1,18.7,27.574,21.274,21.274,0,0,1,11.429,28.8,20.182,20.182,0,0,1,.269,25.538a15.546,15.546,0,0,0,1.755.09,14.225,14.225,0,0,0,9.022-3.1,7.279,7.279,0,0,1-6.794-5.041,9.243,9.243,0,0,0,1.373.112,7.531,7.531,0,0,0,1.912-.247,7.147,7.147,0,0,1-4.174-2.509A7.017,7.017,0,0,1,1.71,10.215v-.09a7.205,7.205,0,0,0,3.285.922A7.256,7.256,0,0,1,2.633,8.46a7.091,7.091,0,0,1-.878-3.465,7.118,7.118,0,0,1,.99-3.667A20.584,20.584,0,0,0,9.371,6.694,20.259,20.259,0,0,0,17.73,8.932a8.072,8.072,0,0,1-.18-1.665,7,7,0,0,1,2.126-5.141A7.285,7.285,0,0,1,30.127,2.3,14.223,14.223,0,0,0,34.739.54a7.061,7.061,0,0,1-3.195,4A14.486,14.486,0,0,0,35.729,3.42Z" transform="translate(-0.269)" fill="#ff0054"/>
</svg>
